Coordinates
version=1
nRows=49
nColumns=12
inDegrees=yes

Units are S.I. units (second, meters, Newtons, ...)
Angles are in degrees

endheader
time	SC_y	SC_z	SC_x	AC_y	AC_z	AC_x	GH_y	GH_z	GH_yy	EL_x	PS_y
       0.0              -55.61          32.93          76.87          49.04         -15.49          6.328          70.42          64.46         -159.9          103.6          85.27
   0.03414              -55.61          32.92          76.86          49.04         -15.49           6.33          70.41          64.45         -159.9          103.6          85.26
   0.06828               -55.6          32.92          76.85          49.04         -15.48          6.331          70.41          64.45         -159.8          103.5          85.25
    0.1024               -55.6          32.92          76.85          49.04         -15.48          6.332           70.4          64.44         -159.8          103.5          85.24
    0.1366               -55.6          32.92          76.84          49.04         -15.47          6.334           70.4          64.43         -159.8          103.5          85.23
    0.1707               -55.6          32.91          76.83          49.04         -15.47          6.335          70.39          64.42         -159.8          103.5          85.21
    0.2048               -55.6          32.91          76.82          49.04         -15.47          6.337          70.39          64.41         -159.8          103.5           85.2
     0.239              -55.59          32.91           76.8          49.04         -15.46          6.339          70.38           64.4         -159.8          103.5          85.18
    0.2731              -55.59           32.9          76.79          49.04         -15.45          6.341          70.37          64.38         -159.7          103.4          85.17
    0.3073              -55.59           32.9          76.78          49.03         -15.45          6.343          70.37          64.37         -159.7          103.4          85.15
    0.3414              -55.58           32.9          76.77          49.03         -15.44          6.345          70.36          64.36         -159.7          103.4          85.13
    0.3755              -55.58          32.89          76.75          49.03         -15.44          6.347          70.35          64.34         -159.6          103.4          85.11
    0.4097              -55.58          32.89          76.73          49.03         -15.43           6.35          70.34          64.32         -159.6          103.4          85.08
    0.4438              -55.57          32.88          76.72          49.03         -15.42          6.353          70.33          64.31         -159.6          103.3          85.06
    0.4779              -55.57          32.88           76.7          49.03         -15.41          6.356          70.32          64.29         -159.5          103.3          85.03
    0.5121              -55.56          32.87          76.68          49.02          -15.4          6.359          70.31          64.27         -159.5          103.3          85.01
    0.5462              -55.56          32.86          76.66          49.02         -15.39          6.363           70.3          64.24         -159.5          103.2          84.97
    0.5804              -55.55          32.86          76.63          49.02         -15.38          6.366          70.28          64.22         -159.4          103.2          84.94
    0.6145              -55.55          32.85          76.61          49.02         -15.37          6.371          70.27          64.19         -159.4          103.1           84.9
    0.6486              -55.54          32.84          76.58          49.01         -15.36          6.375          70.25          64.16         -159.3          103.1          84.86
    0.6828              -55.53          32.83          76.55          49.01         -15.34           6.38          70.23          64.13         -159.2          103.1          84.82
    0.7169              -55.52          32.82          76.51          49.01         -15.33          6.386          70.22          64.09         -159.2          103.0          84.77
    0.7511              -55.51          32.81          76.47           49.0         -15.31          6.392          70.19          64.05         -159.1          102.9          84.72
    0.7852               -55.5           32.8          76.43           49.0         -15.29          6.399          70.17          64.01         -159.0          102.9          84.66
    0.8193              -55.49          32.78          76.38           49.0         -15.27          6.406          70.14          63.96         -158.9          102.8          84.59
    0.8535              -55.48          32.77          76.33          48.99         -15.24          6.415          70.11          63.91         -158.8          102.7          84.51
    0.8876              -55.47          32.75          76.27          48.98         -15.22          6.424          70.08          63.85         -158.7          102.6          84.43
    0.9218              -55.45          32.73           76.2          48.98         -15.19          6.435          70.04          63.78         -158.6          102.5          84.34
    0.9559              -55.43          32.71          76.13          48.97         -15.15          6.447           70.0           63.7         -158.4          102.4          84.23
      0.99              -55.41          32.68          76.04          48.96         -15.11          6.461          69.95          63.61         -158.3          102.3          84.11
     1.024              -55.39          32.66          75.95          48.95         -15.07          6.476           69.9          63.51         -158.1          102.1          83.97
     1.058              -55.36          32.62          75.83          48.94         -15.02          6.494          69.84           63.4         -157.9          101.9          83.82
     1.092              -55.33          32.58           75.7          48.93         -14.96          6.515          69.76          63.26         -157.6          101.7          83.64
     1.127               -55.3          32.54          75.55          48.92         -14.89          6.539          69.68          63.11         -157.3          101.5          83.42
     1.161              -55.26          32.49          75.38           48.9         -14.81          6.567          69.58          62.93         -157.0          101.2          83.18
     1.195              -55.21          32.43          75.17          48.88         -14.72            6.6          69.47          62.72         -156.6          100.9          82.89
     1.229              -55.15          32.36          74.93          48.86         -14.61          6.639          69.33          62.46         -156.1          100.5          82.54
     1.263              -55.08          32.27          74.63          48.83         -14.47          6.686          69.16          62.16         -155.5          100.0          82.12
     1.297               -55.0          32.16          74.27          48.79         -14.31          6.743          68.96          61.79         -154.8          99.44          81.62
     1.331               -54.9          32.04          73.84          48.75         -14.11          6.813          68.72          61.35         -153.9          98.75          81.01
     1.366              -54.77          31.88           73.3           48.7         -13.87          6.899          68.42          60.79         -152.9          97.89          80.25
       1.4              -54.61          31.68          72.63          48.63         -13.56          7.006          68.04           60.1         -151.6          96.82          79.31
     1.434              -54.41          31.43          71.79          48.55         -13.18          7.141          67.57          59.23         -149.9          95.48          78.12
     1.468              -54.16          31.12          70.71          48.45         -12.69          7.313          66.97          58.13         -147.8          93.77          76.61
     1.502              -53.84          30.71          69.34          48.32         -12.06          7.533           66.2          56.72         -145.1          91.59          74.68
     1.536              -53.42           30.2          67.57          48.15         -11.26          7.815          65.22           54.9         -141.7          88.78          72.19
      1.57              -52.89          29.53          65.32          47.93         -10.23          8.175          63.95          52.58         -137.3           85.2          69.02
     1.605              -52.23           28.7          62.49          47.66         -8.946          8.628          62.37          49.67         -131.7          80.69          65.04
     1.639              -51.42          27.69          59.04          47.32         -7.375           9.18          60.44          46.12         -124.9           75.2          60.18
